<?xml version="1.0" encoding="UTF-8" standalone="no"?> <svg xmlns="http://www.w3.org/2000/svg" viewBox="0 0 32 32"><defs><style>.cls-1{fill:#eaeff0;}.cls-2{fill:#2d4a60;}.cls-3{fill:#d9e1e2;}.cls-4{fill:#8fa5a5;}</style></defs><title>Contract</title><g id="Contract"><path class="cls-1" d="M10,30a5,5,0,0,1-5-5V7a5,5,0,0,1,5-5H20.171a3,3,0,0,1,2.122.879l3.828,3.828A3,3,0,0,1,27,8.829V25a5,5,0,0,1-5,5Z"/><path class="cls-1" d="M10,30a5,5,0,0,1-5-5V7a5,5,0,0,1,5-5H20.171a3,3,0,0,1,2.122.879l3.828,3.828A3,3,0,0,1,27,8.829V25a5,5,0,0,1-5,5Z"/><path class="cls-2" d="M21,25a.988.988,0,0,1-.495-.132,1,1,0,0,1-.372-1.364l8-14a1,1,0,1,1,1.736.992l-8,14A1,1,0,0,1,21,25Z"/><path class="cls-3" d="M26.121,6.707,22.293,2.879A2.99,2.99,0,0,0,21,2.131V6a2,2,0,0,0,2,2h3.869A2.99,2.99,0,0,0,26.121,6.707Z"/><path class="cls-4" d="M10,10h6a1,1,0,0,0,0-2H10a1,1,0,0,0,0,2Z"/><path class="cls-4" d="M10,14H20a1,1,0,0,0,0-2H10a1,1,0,0,0,0,2Z"/><path class="cls-4" d="M21,17a1,1,0,0,0-1-1H10a1,1,0,0,0,0,2H20A1,1,0,0,0,21,17Z"/><path class="cls-4" d="M16.3,22.29a2.732,2.732,0,0,1-1.2.7c-.1-.068-.251-.209-.36-.307a2.9,2.9,0,0,0-2.283-1,3.424,3.424,0,0,0-2.285,1.763,1,1,0,0,0,1.664,1.11c.561-.841.863-.888.866-.888.125-.021.51.331.694.5A2.429,2.429,0,0,0,15,25a4.392,4.392,0,0,0,2.707-1.293A1,1,0,0,0,16.3,22.29Z"/></g></svg>