<?xml version="1.0" encoding="UTF-8" standalone="no"?> <svg width="48" height="48" viewBox="0 0 48 48" fill="none" xmlns="http://www.w3.org/2000/svg">
<path d="M36 45H12C10.9391 45 9.92172 44.5786 9.17157 43.8284C8.42143 43.0783 8 42.0609 8 41V7C8 5.93913 8.42143 4.92172 9.17157 4.17157C9.92172 3.42143 10.9391 3 12 3H29.38C29.9068 2.99998 30.4285 3.10403 30.915 3.30619C31.4015 3.50835 31.8433 3.80462 32.215 4.178L38.835 10.83C39.5812 11.5796 40 12.5943 40 13.652V41C40 42.0609 39.5786 43.0783 38.8284 43.8284C38.0783 44.5786 37.0609 45 36 45Z" fill="#EAEFF0"/>
<path d="M9.014 4.36279C8.36392 5.08762 8.00303 6.02616 8 6.99979V40.9998C8 42.0607 8.42143 43.0781 9.17157 43.8282C9.92172 44.5784 10.9391 44.9998 12 44.9998H36C36.9358 44.9965 37.8402 44.6621 38.553 44.0558L9.014 4.36279Z" fill="#D9E1E2"/>
<path d="M38.835 10.8301L32.215 4.17805C31.8647 3.82978 31.4527 3.54968 31 3.35205V10.0001C31 10.5305 31.2107 11.0392 31.5858 11.4143C31.9609 11.7893 32.4696 12.0001 33 12.0001H39.631C39.4373 11.5658 39.1678 11.1696 38.835 10.8301V10.8301Z" fill="#8FA5A5"/>
<path d="M35.8901 37.0601L42.3101 43.4901C42.4952 43.6752 42.6421 43.895 42.7423 44.137C42.8425 44.3789 42.8941 44.6382 42.8941 44.9001C42.8941 45.1619 42.8425 45.4212 42.7423 45.6631C42.6421 45.9051 42.4952 46.1249 42.3101 46.3101C42.1249 46.4952 41.9051 46.6421 41.6631 46.7423C41.4212 46.8425 41.1619 46.8941 40.9001 46.8941C40.6382 46.8941 40.3789 46.8425 40.137 46.7423C39.895 46.6421 39.6752 46.4952 39.4901 46.3101L33.0601 39.8901L35.8901 37.0601Z" fill="#2D4A60"/>
<path d="M31 43C35.4183 43 39 39.4183 39 35C39 30.5817 35.4183 27 31 27C26.5817 27 23 30.5817 23 35C23 39.4183 26.5817 43 31 43Z" fill="#EAEFF0"/>
<path d="M38.7352 32.9868C38.792 34.1982 38.481 35.3983 37.8431 36.4296C37.2052 37.461 36.2703 38.2752 35.1611 38.7654C34.0519 39.2555 32.8204 39.3987 31.6284 39.1761C30.4363 38.9535 29.3395 38.3754 28.4821 37.518C27.6246 36.6605 27.0466 35.5637 26.8239 34.3716C26.6013 33.1796 26.7445 31.9481 27.2346 30.8389C27.7248 29.7297 28.539 28.7948 29.5704 28.1569C30.6017 27.519 31.8019 27.2081 33.0132 27.2648C31.3135 26.8215 29.5152 26.9499 27.8958 27.6302C26.2764 28.3105 24.9258 29.5049 24.0527 31.029C23.1795 32.5531 22.8322 34.3222 23.0643 36.0633C23.2965 37.8044 24.0953 39.4207 25.3373 40.6627C26.5793 41.9048 28.1956 42.7035 29.9367 42.9357C31.6778 43.1678 33.447 42.8205 34.9711 41.9474C36.4952 41.0742 37.6895 39.7236 38.3698 38.1042C39.0501 36.4848 39.1785 34.6865 38.7352 32.9868V32.9868Z" fill="#D9E1E2"/>
<path d="M43.0178 42.7838L39.1178 38.8718C40.0358 36.9531 40.2459 34.7715 39.7108 32.7129C39.1756 30.6542 37.9298 28.8511 36.1936 27.6223C34.4574 26.3935 32.3426 25.8182 30.2231 25.9981C28.1037 26.1781 26.1161 27.1016 24.6119 28.6055C23.1077 30.1094 22.1836 32.0967 22.0032 34.2161C21.8228 36.3355 22.3976 38.4505 23.6259 40.187C24.8543 41.9235 26.6572 43.1697 28.7157 43.7054C30.7742 44.241 32.9558 44.0314 34.8748 43.1138L38.7858 47.0138C39.0637 47.292 39.3937 47.5126 39.757 47.6632C40.1202 47.8138 40.5095 47.8914 40.9027 47.8916C41.2959 47.8917 41.6853 47.8144 42.0486 47.664C42.412 47.5137 42.7421 47.2933 43.0203 47.0153C43.2984 46.7374 43.5191 46.4074 43.6697 46.0441C43.8203 45.6809 43.8979 45.2916 43.898 44.8984C43.8982 44.5052 43.8209 44.1158 43.6705 43.7524C43.5202 43.3891 43.2997 43.059 43.0218 42.7808L43.0178 42.7838ZM26.0498 39.9498C25.0709 38.9708 24.4043 37.7235 24.1342 36.3657C23.8642 35.0078 24.0029 33.6004 24.5327 32.3214C25.0625 31.0423 25.9597 29.9491 27.1109 29.18C28.262 28.4108 29.6153 28.0003 30.9998 28.0003C32.3842 28.0003 33.7376 28.4108 34.8887 29.18C36.0398 29.9491 36.937 31.0423 37.4669 32.3214C37.9967 33.6004 38.1354 35.0078 37.8653 36.3657C37.5953 37.7235 36.9287 38.9708 35.9498 39.9498C34.6361 41.261 32.8559 41.9974 30.9998 41.9974C29.1437 41.9974 27.3635 41.261 26.0498 39.9498V39.9498ZM41.5998 45.5998C41.4126 45.7849 41.16 45.8886 40.8968 45.8886C40.6336 45.8886 40.381 45.7849 40.1938 45.5998L36.6128 42.0268C37.1381 41.6131 37.6127 41.1389 38.0268 40.6138L41.5998 44.1998C41.6925 44.2919 41.7661 44.4015 41.8163 44.5221C41.8665 44.6428 41.8923 44.7721 41.8923 44.9028C41.8923 45.0335 41.8665 45.1629 41.8163 45.2835C41.7661 45.4042 41.6925 45.5137 41.5998 45.6058V45.5998Z" fill="black"/>
<path d="M25 44H12C11.2044 44 10.4413 43.684 9.87868 43.1213C9.31607 42.5587 9 41.7957 9 41V7.00002C9 6.20437 9.31607 5.44131 9.87868 4.8787C10.4413 4.31609 11.2044 4.00002 12 4.00002H29.38C29.5884 4.00056 29.7963 4.02301 30 4.06702V10C30 10.7957 30.3161 11.5587 30.8787 12.1213C31.4413 12.684 32.2044 13 33 13H38.923C38.9724 13.2136 38.9982 13.4319 39 13.651V27C39 27.2652 39.1054 27.5196 39.2929 27.7071C39.4804 27.8947 39.7348 28 40 28C40.2652 28 40.5196 27.8947 40.7071 27.7071C40.8946 27.5196 41 27.2652 41 27V13.651C41.0014 12.9962 40.8734 12.3476 40.6236 11.7424C40.3737 11.1371 40.0069 10.5872 39.544 10.124L32.924 3.47302C32.4606 3.00461 31.9085 2.63313 31.3001 2.38024C30.6916 2.12735 30.0389 1.9981 29.38 2.00002H12C10.6744 2.00161 9.40356 2.5289 8.46622 3.46624C7.52888 4.40358 7.00159 5.67443 7 7.00002V41C7.00159 42.3256 7.52888 43.5965 8.46622 44.5338C9.40356 45.4711 10.6744 45.9984 12 46H25C25.2652 46 25.5196 45.8947 25.7071 45.7071C25.8946 45.5196 26 45.2652 26 45C26 44.7348 25.8946 44.4805 25.7071 44.2929C25.5196 44.1054 25.2652 44 25 44ZM37.594 11H33C32.7348 11 32.4804 10.8947 32.2929 10.7071C32.1054 10.5196 32 10.2652 32 10V5.38002L37.594 11Z" fill="black"/>
<path d="M14 13H25C25.2652 13 25.5196 12.8946 25.7071 12.7071C25.8946 12.5196 26 12.2652 26 12C26 11.7348 25.8946 11.4804 25.7071 11.2929C25.5196 11.1054 25.2652 11 25 11H14C13.7348 11 13.4804 11.1054 13.2929 11.2929C13.1054 11.4804 13 11.7348 13 12C13 12.2652 13.1054 12.5196 13.2929 12.7071C13.4804 12.8946 13.7348 13 14 13V13Z" fill="black"/>
<path d="M34 17H17C16.7348 17 16.4804 17.1054 16.2929 17.2929C16.1054 17.4804 16 17.7348 16 18C16 18.2652 16.1054 18.5196 16.2929 18.7071C16.4804 18.8946 16.7348 19 17 19H34C34.2652 19 34.5196 18.8946 34.7071 18.7071C34.8946 18.5196 35 18.2652 35 18C35 17.7348 34.8946 17.4804 34.7071 17.2929C34.5196 17.1054 34.2652 17 34 17Z" fill="black"/>
<path d="M35 23C35 22.7348 34.8946 22.4804 34.7071 22.2929C34.5196 22.1054 34.2652 22 34 22H14C13.7348 22 13.4804 22.1054 13.2929 22.2929C13.1054 22.4804 13 22.7348 13 23C13 23.2652 13.1054 23.5196 13.2929 23.7071C13.4804 23.8946 13.7348 24 14 24H34C34.2652 24 34.5196 23.8946 34.7071 23.7071C34.8946 23.5196 35 23.2652 35 23Z" fill="black"/>
<path d="M21 28C21 27.7348 20.8946 27.4804 20.7071 27.2929C20.5196 27.1054 20.2652 27 20 27H14C13.7348 27 13.4804 27.1054 13.2929 27.2929C13.1054 27.4804 13 27.7348 13 28C13 28.2652 13.1054 28.5196 13.2929 28.7071C13.4804 28.8946 13.7348 29 14 29H20C20.2652 29 20.5196 28.8946 20.7071 28.7071C20.8946 28.5196 21 28.2652 21 28Z" fill="black"/>
<path d="M14 34H18C18.2652 34 18.5196 33.8946 18.7071 33.7071C18.8946 33.5196 19 33.2652 19 33C19 32.7348 18.8946 32.4804 18.7071 32.2929C18.5196 32.1054 18.2652 32 18 32H14C13.7348 32 13.4804 32.1054 13.2929 32.2929C13.1054 32.4804 13 32.7348 13 33C13 33.2652 13.1054 33.5196 13.2929 33.7071C13.4804 33.8946 13.7348 34 14 34V34Z" fill="black"/>
<path d="M14 39H19C19.2652 39 19.5196 38.8946 19.7071 38.7071C19.8946 38.5196 20 38.2652 20 38C20 37.7348 19.8946 37.4804 19.7071 37.2929C19.5196 37.1054 19.2652 37 19 37H14C13.7348 37 13.4804 37.1054 13.2929 37.2929C13.1054 37.4804 13 37.7348 13 38C13 38.2652 13.1054 38.5196 13.2929 38.7071C13.4804 38.8946 13.7348 39 14 39V39Z" fill="black"/>
<path d="M31 38C30.2044 38 29.4413 37.6839 28.8787 37.1213C28.3161 36.5587 28 35.7956 28 35C28 34.7348 27.8946 34.4804 27.7071 34.2929C27.5196 34.1054 27.2652 34 27 34C26.7348 34 26.4804 34.1054 26.2929 34.2929C26.1054 34.4804 26 34.7348 26 35C26.0016 36.3256 26.5289 37.5964 27.4662 38.5338C28.4036 39.4711 29.6744 39.9984 31 40C31.2652 40 31.5196 39.8946 31.7071 39.7071C31.8946 39.5196 32 39.2652 32 39C32 38.7348 31.8946 38.4804 31.7071 38.2929C31.5196 38.1054 31.2652 38 31 38Z" fill="black"/>
</svg>
