<?xml version="1.0" encoding="UTF-8" standalone="no"?> <svg width="64" height="64" viewBox="0 0 64 64" fill="none" xmlns="http://www.w3.org/2000/svg">
<path d="M35.85 3H28.14C25.3786 3 23.14 5.23858 23.14 8V56C23.14 58.7614 25.3786 61 28.14 61H35.85C38.6114 61 40.85 58.7614 40.85 56V8C40.85 5.23858 38.6114 3 35.85 3Z" fill="#F6C863"/>
<path d="M55.85 3H48.14C45.3786 3 43.14 5.23858 43.14 8V56C43.14 58.7614 45.3786 61 48.14 61H55.85C58.6114 61 60.85 58.7614 60.85 56V8C60.85 5.23858 58.6114 3 55.85 3Z" fill="#64B5F6"/>
<path d="M15.85 3H8.14001C5.37859 3 3.14001 5.23858 3.14001 8V56C3.14001 58.7614 5.37859 61 8.14001 61H15.85C18.6114 61 20.85 58.7614 20.85 56V8C20.85 5.23858 18.6114 3 15.85 3Z" fill="#EF5261"/>
<path d="M39.85 12.86H24.14C23.5877 12.86 23.14 13.3077 23.14 13.86V32C23.14 32.5523 23.5877 33 24.14 33H39.85C40.4023 33 40.85 32.5523 40.85 32V13.86C40.85 13.3077 40.4023 12.86 39.85 12.86Z" fill="#EEEFEE"/>
<path d="M59.85 12.86H44.14C43.5877 12.86 43.14 13.3077 43.14 13.86V32C43.14 32.5523 43.5877 33 44.14 33H59.85C60.4023 33 60.85 32.5523 60.85 32V13.86C60.85 13.3077 60.4023 12.86 59.85 12.86Z" fill="#EEEFEE"/>
<path d="M19.85 12.86H4.14001C3.58773 12.86 3.14001 13.3077 3.14001 13.86V32C3.14001 32.5523 3.58773 33 4.14001 33H19.85C20.4023 33 20.85 32.5523 20.85 32V13.86C20.85 13.3077 20.4023 12.86 19.85 12.86Z" fill="#EEEFEE"/>
<path d="M32 53C34.6013 53 36.71 50.8913 36.71 48.29C36.71 45.6888 34.6013 43.58 32 43.58C29.3988 43.58 27.29 45.6888 27.29 48.29C27.29 50.8913 29.3988 53 32 53Z" fill="#575B6D"/>
<path d="M52 53C54.6013 53 56.71 50.8913 56.71 48.29C56.71 45.6888 54.6013 43.58 52 43.58C49.3988 43.58 47.29 45.6888 47.29 48.29C47.29 50.8913 49.3988 53 52 53Z" fill="#575B6D"/>
<path d="M12 43.57C11.0661 43.568 10.1525 43.8431 9.37501 44.3606C8.5975 44.878 7.99097 45.6145 7.63219 46.4768C7.27341 47.3391 7.17851 48.2884 7.3595 49.2047C7.54049 50.1209 7.98924 50.9629 8.64894 51.624C9.30864 52.2851 10.1496 52.7356 11.0655 52.9185C11.9814 53.1015 12.9309 53.0086 13.794 52.6516C14.657 52.2947 15.3948 51.6897 15.9139 50.9133C16.4329 50.1369 16.71 49.2239 16.71 48.29C16.71 47.0399 16.2141 45.8409 15.3311 44.956C14.4481 44.0711 13.2501 43.5726 12 43.57V43.57Z" fill="#575B6D"/>
</svg>
